<svg xmlns="http://www.w3.org/2000/svg" width="139" height="57.635" viewBox="0 0 139 57.635">
  <g id="logo" transform="translate(0 0)">
    <text id="memo" transform="translate(64 27.635)" fill="#da6c21" font-size="31" font-family="SimplifiedArabicFixed, Simplified Arabic Fixed"><tspan x="0" y="0">memo</tspan></text>
    <text id="Rec" transform="translate(62 49.635)" fill="#070300" font-size="30" font-family="Roboto-Regular, Roboto" letter-spacing="0.415em"><tspan x="0" y="0">Rec</tspan></text>
    <path id="ic_assignment_turned_in_24px" d="M40.282,5.66h-9.74a6.963,6.963,0,0,0-13.142,0H7.66A4.674,4.674,0,0,0,3,10.32V42.942A4.674,4.674,0,0,0,7.66,47.6H40.282a4.674,4.674,0,0,0,4.66-4.66V10.32A4.674,4.674,0,0,0,40.282,5.66Zm-16.311,0a2.33,2.33,0,1,1-2.33,2.33A2.337,2.337,0,0,1,23.971,5.66Zm-4.66,32.621-9.32-9.32,3.285-3.285,6.035,6.012L34.666,16.332l3.285,3.309Z" transform="translate(-3 4.854)" fill="#fbc00c"/>
    <rect id="Rectangle_20" data-name="Rectangle 20" width="24.941" height="2.375" transform="matrix(-0.94, 0.342, -0.342, -0.94, 53.487, 11.983)" fill="#070300"/>
    <ellipse id="Ellipse_27" data-name="Ellipse 27" cx="4.157" cy="10.095" rx="4.157" ry="10.095" transform="matrix(-0.94, 0.342, -0.342, -0.94, 45.644, 24.421)" fill="#f58f49"/>
    <rect id="Rectangle_19" data-name="Rectangle 19" width="8.314" height="14.252" transform="matrix(-0.94, 0.342, -0.342, -0.94, 49.112, 19.668)" fill="#f58f49"/>
    <ellipse id="Ellipse_26" data-name="Ellipse 26" cx="5.344" cy="11.283" rx="5.344" ry="11.283" transform="matrix(-0.94, 0.342, -0.342, -0.94, 57.889, 21.204)" fill="#da6c21"/>
  </g>
</svg>
